G04 DipTrace 3.3.1.0*
G04 Bottom.gbr*
%MOIN*%
G04 #@! TF.FileFunction,Copper,L2,Bot*
G04 #@! TF.Part,Single*
G04 #@! TA.AperFunction,Conductor*
%ADD13C,0.031496*%
%ADD14C,0.012992*%
G04 #@! TA.AperFunction,ComponentPad*
%ADD15C,0.062992*%
%ADD16R,0.062992X0.062992*%
%ADD17C,0.05*%
%ADD18R,0.05X0.05*%
%ADD19C,0.05*%
%ADD20R,0.066929X0.066929*%
%ADD21C,0.066929*%
%ADD22R,0.074803X0.074803*%
%ADD23C,0.074803*%
%FSLAX26Y26*%
G04*
G70*
G90*
G75*
G01*
G04 Bottom*
%LPD*%
X643701Y1593701D2*
D13*
X1143701D1*
D14*
X1366081D1*
X1643701D1*
X1343701D2*
X1366081D1*
X643701D2*
D13*
D3*
X1143701D2*
X1643701D1*
X1843701D2*
D14*
X2243701D1*
X2543701D1*
X3143701D1*
X1843701D2*
D13*
X3143701D1*
X643701Y1493701D2*
D14*
X843701D1*
X943701Y1393701D1*
X952522D1*
X954127D1*
X1143701D1*
X1643701D1*
X1743701Y1493701D1*
Y1502831D1*
Y1505190D1*
Y1593701D1*
X2243701Y1393701D2*
X1855190D1*
X1746060Y1502831D1*
X1743701Y1505190D1*
X643701Y1493701D2*
D13*
D3*
X1143701Y1393701D2*
X1632211D1*
X1743701Y1505190D1*
Y1593701D2*
Y1505190D1*
Y1502831D2*
X1746060D1*
X2243701Y1393701D2*
X1855190D1*
X1743701Y1505190D1*
X643701Y1493701D2*
X852522D1*
X952522Y1393701D1*
X2243701D2*
Y1093701D1*
X2293701Y1043701D1*
X2543701D1*
X3143701Y1493701D2*
X2793701D1*
X2743701Y1443701D1*
Y1093701D1*
X2693701Y1043701D1*
X2543701D1*
X1143701Y1393701D2*
X954127D1*
X2543701Y1143701D2*
Y1293701D1*
D15*
X1143701Y1393701D3*
D16*
Y1593701D3*
D15*
X2243701Y1393701D3*
D16*
Y1593701D3*
D17*
X2543701Y1043701D3*
D18*
Y1143701D3*
D17*
Y1593701D3*
D19*
Y1293701D3*
D20*
X643701Y1593701D3*
D21*
Y1493701D3*
D20*
X3143701Y1593701D3*
D21*
Y1493701D3*
D22*
X1643701Y1593701D3*
D23*
X1743701D3*
X1843701D3*
M02*
