G04 DipTrace 3.3.1.0*
G04 TopAssy.gbr*
%MOIN*%
G04 #@! TF.FileFunction,Drawing,Top*
G04 #@! TF.Part,Single*
%ADD10C,0.009843*%
%ADD46C,0.003088*%
%FSLAX26Y26*%
G04*
G70*
G90*
G75*
G01*
G04 TopAssy*
%LPD*%
X703546Y1683071D2*
D10*
Y1404331D1*
X3203546Y1683071D2*
Y1404331D1*
X736917Y1642169D2*
D46*
X716821D1*
Y1633547D1*
X717794Y1630673D1*
X718745Y1629722D1*
X720646Y1628771D1*
X723520D1*
X725443Y1629722D1*
X726394Y1630673D1*
X727345Y1633547D1*
X728317Y1630673D1*
X729268Y1629722D1*
X731169Y1628771D1*
X733093D1*
X734994Y1629722D1*
X735967Y1630673D1*
X736917Y1633547D1*
Y1642169D1*
X727345D2*
Y1633547D1*
X736917Y1616848D2*
X735967Y1618771D1*
X734043Y1620672D1*
X732142Y1621645D1*
X729268Y1622596D1*
X724471D1*
X721619Y1621645D1*
X719695Y1620672D1*
X717794Y1618771D1*
X716821Y1616848D1*
Y1613023D1*
X717794Y1611122D1*
X719695Y1609198D1*
X721619Y1608248D1*
X724471Y1607297D1*
X729268D1*
X732142Y1608248D1*
X734043Y1609198D1*
X735967Y1611122D1*
X736917Y1613023D1*
Y1616848D1*
X716821Y1585801D2*
X736917Y1593472D1*
X716821Y1601121D1*
X723520Y1598247D2*
Y1588675D1*
X727345Y1579625D2*
Y1571025D1*
X728317Y1568151D1*
X729268Y1567178D1*
X731169Y1566228D1*
X733093D1*
X734994Y1567178D1*
X735967Y1568151D1*
X736917Y1571025D1*
Y1579625D1*
X716821D1*
X727345Y1572926D2*
X716821Y1566228D1*
X736917Y1560052D2*
X716821D1*
Y1553353D1*
X717794Y1550479D1*
X719695Y1548556D1*
X721619Y1547605D1*
X724471Y1546655D1*
X729268D1*
X732142Y1547605D1*
X734043Y1548556D1*
X735967Y1550479D1*
X736917Y1553353D1*
Y1560052D1*
Y1508614D2*
Y1521039D1*
X716821D1*
Y1508614D1*
X727345Y1521039D2*
Y1513389D1*
X736917Y1502438D2*
X716821D1*
Y1495740D1*
X717794Y1492866D1*
X719695Y1490942D1*
X721619Y1489992D1*
X724471Y1489041D1*
X729268D1*
X732142Y1489992D1*
X734043Y1490942D1*
X735967Y1492866D1*
X736917Y1495740D1*
Y1502438D1*
X732142Y1468517D2*
X734043Y1469468D1*
X735967Y1471391D1*
X736917Y1473293D1*
Y1477117D1*
X735967Y1479041D1*
X734043Y1480942D1*
X732142Y1481915D1*
X729268Y1482865D1*
X724471D1*
X721619Y1481915D1*
X719695Y1480942D1*
X717794Y1479041D1*
X716821Y1477117D1*
Y1473293D1*
X717794Y1471391D1*
X719695Y1469468D1*
X721619Y1468517D1*
X724471D1*
Y1473293D1*
X736917Y1449917D2*
Y1462342D1*
X716821D1*
Y1449917D1*
X727345Y1462342D2*
Y1454692D1*
X3236917Y1642169D2*
X3216821D1*
Y1633547D1*
X3217794Y1630673D1*
X3218745Y1629722D1*
X3220646Y1628771D1*
X3223520D1*
X3225443Y1629722D1*
X3226394Y1630673D1*
X3227345Y1633547D1*
X3228317Y1630673D1*
X3229268Y1629722D1*
X3231169Y1628771D1*
X3233093D1*
X3234994Y1629722D1*
X3235967Y1630673D1*
X3236917Y1633547D1*
Y1642169D1*
X3227345D2*
Y1633547D1*
X3236917Y1616848D2*
X3235967Y1618771D1*
X3234043Y1620672D1*
X3232142Y1621645D1*
X3229268Y1622596D1*
X3224471D1*
X3221619Y1621645D1*
X3219695Y1620672D1*
X3217794Y1618771D1*
X3216821Y1616848D1*
Y1613023D1*
X3217794Y1611122D1*
X3219695Y1609198D1*
X3221619Y1608248D1*
X3224471Y1607297D1*
X3229268D1*
X3232142Y1608248D1*
X3234043Y1609198D1*
X3235967Y1611122D1*
X3236917Y1613023D1*
Y1616848D1*
X3216821Y1585801D2*
X3236917Y1593472D1*
X3216821Y1601121D1*
X3223520Y1598247D2*
Y1588675D1*
X3227345Y1579625D2*
Y1571025D1*
X3228317Y1568151D1*
X3229268Y1567178D1*
X3231169Y1566228D1*
X3233093D1*
X3234994Y1567178D1*
X3235967Y1568151D1*
X3236917Y1571025D1*
Y1579625D1*
X3216821D1*
X3227345Y1572926D2*
X3216821Y1566228D1*
X3236917Y1560052D2*
X3216821D1*
Y1553353D1*
X3217794Y1550479D1*
X3219695Y1548556D1*
X3221619Y1547605D1*
X3224471Y1546655D1*
X3229268D1*
X3232142Y1547605D1*
X3234043Y1548556D1*
X3235967Y1550479D1*
X3236917Y1553353D1*
Y1560052D1*
Y1508614D2*
Y1521039D1*
X3216821D1*
Y1508614D1*
X3227345Y1521039D2*
Y1513389D1*
X3236917Y1502438D2*
X3216821D1*
Y1495740D1*
X3217794Y1492866D1*
X3219695Y1490942D1*
X3221619Y1489992D1*
X3224471Y1489041D1*
X3229268D1*
X3232142Y1489992D1*
X3234043Y1490942D1*
X3235967Y1492866D1*
X3236917Y1495740D1*
Y1502438D1*
X3232142Y1468517D2*
X3234043Y1469468D1*
X3235967Y1471391D1*
X3236917Y1473293D1*
Y1477117D1*
X3235967Y1479041D1*
X3234043Y1480942D1*
X3232142Y1481915D1*
X3229268Y1482865D1*
X3224471D1*
X3221619Y1481915D1*
X3219695Y1480942D1*
X3217794Y1479041D1*
X3216821Y1477117D1*
Y1473293D1*
X3217794Y1471391D1*
X3219695Y1469468D1*
X3221619Y1468517D1*
X3224471D1*
Y1473293D1*
X3236917Y1449917D2*
Y1462342D1*
X3216821D1*
Y1449917D1*
X3227345Y1462342D2*
Y1454692D1*
M02*
