G04 DipTrace 3.3.1.0*
G04 TopSilk.gbr*
%MOIN*%
G04 #@! TF.FileFunction,Legend,Top*
G04 #@! TF.Part,Single*
%ADD10C,0.009843*%
%ADD12C,0.003*%
%ADD45C,0.00772*%
%FSLAX26Y26*%
G04*
G70*
G90*
G75*
G01*
G04 TopSilk*
%LPD*%
X1131881Y1674811D2*
D10*
X1155521D1*
X1143701Y1686608D2*
Y1662981D1*
X993701Y1493702D2*
G02X993701Y1493702I150000J0D01*
G01*
X2231881Y1674811D2*
X2255521D1*
X2243701Y1686608D2*
Y1662981D1*
X2093701Y1493702D2*
G02X2093701Y1493702I150000J0D01*
G01*
X2468763Y1193694D2*
X2618639D1*
X2468463Y1193469D2*
G03X2618939Y1193469I75238J-99796D01*
G01*
X2573701Y1523851D2*
X2513701D1*
X2573701Y1363551D2*
Y1523851D1*
Y1363551D2*
X2513701D1*
Y1523851D1*
X693706Y1643713D2*
X593701D1*
Y1443689D1*
X693706D1*
Y1643713D1*
X3193706D2*
X3093701D1*
Y1443689D1*
X3193706D1*
Y1643713D1*
X1546850Y1700000D2*
X1940551D1*
Y1522835D1*
X1546850D1*
Y1700000D1*
Y1664567D2*
X1940551D1*
X2258701Y2107701D2*
D12*
X2285701D1*
X2564701D2*
X2573701D1*
X1805701Y2104701D2*
X1844701D1*
X2253302D2*
X2291906D1*
X2564701D2*
X2573701D1*
X1805701Y2101701D2*
X1850111D1*
X2248653D2*
X2296988D1*
X2564701D2*
X2573701D1*
X1805701Y2098701D2*
X1854854D1*
X2245042D2*
X2299226D1*
X2564701D2*
X2573701D1*
X1805701Y2095701D2*
X1858741D1*
X2242379D2*
X2262994D1*
X2281598D2*
X2300018D1*
X2564701D2*
X2573701D1*
X1805701Y2092701D2*
X1814701D1*
X1841099D2*
X1861729D1*
X2240332D2*
X2256881D1*
X2288492D2*
X2300441D1*
X2564701D2*
X2573701D1*
X1805701Y2089701D2*
X1814701D1*
X1845749D2*
X1864056D1*
X2238607D2*
X2252708D1*
X2294701D2*
X2300701D1*
X2564701D2*
X2573701D1*
X1805701Y2086701D2*
X1814701D1*
X1849359D2*
X1865017D1*
X2237122D2*
X2250014D1*
X2564701D2*
X2573701D1*
X1805701Y2083701D2*
X1814701D1*
X1852011D2*
X1865859D1*
X2235991D2*
X2248075D1*
X2564701D2*
X2573701D1*
X1805701Y2080701D2*
X1814701D1*
X1853941D2*
X1866774D1*
X1901701D2*
X1919701D1*
X2087701D2*
X2105701D1*
X2235411D2*
X2247594D1*
X2429701D2*
X2444701D1*
X2510701D2*
X2525701D1*
X2564701D2*
X2573701D1*
X1805701Y2077701D2*
X1814701D1*
X1855460D2*
X1867522D1*
X1895943D2*
X1925099D1*
X1952701D2*
X1964701D1*
X1997701D2*
X2009701D1*
X2042701D2*
X2054701D1*
X2082302D2*
X2110997D1*
X2141701D2*
X2153701D1*
X2171701D2*
X2180701D1*
X2235450D2*
X2248257D1*
X2318701D2*
X2330701D1*
X2369701D2*
X2378701D1*
X2402701D2*
X2411701D1*
X2423149D2*
X2449648D1*
X2483701D2*
X2492701D1*
X2504149D2*
X2530648D1*
X2564701D2*
X2573701D1*
X2588701D2*
X2597701D1*
X2642701D2*
X2654701D1*
X1805701Y2074701D2*
X1814701D1*
X1855632D2*
X1867694D1*
X1891325D2*
X1929749D1*
X1953726D2*
X1965164D1*
X1997237D2*
X2010164D1*
X2042237D2*
X2053304D1*
X2077653D2*
X2115355D1*
X2141701D2*
X2154252D1*
X2165149D2*
X2180701D1*
X2236028D2*
X2249432D1*
X2318701D2*
X2330701D1*
X2369701D2*
X2378701D1*
X2402701D2*
X2413107D1*
X2416097D2*
X2453647D1*
X2483701D2*
X2494107D1*
X2497097D2*
X2534647D1*
X2564701D2*
X2573701D1*
X2589164D2*
X2599549D1*
X2642225D2*
X2653663D1*
X1805701Y2071701D2*
X1814701D1*
X1855223D2*
X1867265D1*
X1887847D2*
X1933359D1*
X1954631D2*
X1965908D1*
X1996493D2*
X2010908D1*
X2041493D2*
X2052337D1*
X2074042D2*
X2118524D1*
X2141701D2*
X2155305D1*
X2158097D2*
X2180701D1*
X2236853D2*
X2250984D1*
X2318701D2*
X2330701D1*
X2369701D2*
X2378701D1*
X2402701D2*
X2456757D1*
X2483701D2*
X2537757D1*
X2564701D2*
X2573701D1*
X2589920D2*
X2601166D1*
X2641376D2*
X2652665D1*
X1805701Y2068701D2*
X1814701D1*
X1854486D2*
X1866616D1*
X1885284D2*
X1902405D1*
X1918997D2*
X1936011D1*
X1955305D2*
X1966685D1*
X1995705D2*
X2011697D1*
X2040705D2*
X2051519D1*
X2071379D2*
X2088302D1*
X2104985D2*
X2120754D1*
X2141701D2*
X2180701D1*
X2237852D2*
X2254615D1*
X2318701D2*
X2330701D1*
X2369701D2*
X2378701D1*
X2402701D2*
X2427892D1*
X2444587D2*
X2459231D1*
X2483701D2*
X2508892D1*
X2525587D2*
X2540231D1*
X2564701D2*
X2573701D1*
X2590802D2*
X2602485D1*
X2640217D2*
X2651702D1*
X1805701Y2065701D2*
X1814701D1*
X1853513D2*
X1866029D1*
X1883291D2*
X1898046D1*
X1923355D2*
X1937964D1*
X1955981D2*
X1967222D1*
X1995074D2*
X2012328D1*
X2040074D2*
X2050607D1*
X2069332D2*
X2083653D1*
X2109238D2*
X2122329D1*
X2141701D2*
X2180701D1*
X2239340D2*
X2260122D1*
X2318701D2*
X2330701D1*
X2369701D2*
X2378701D1*
X2402701D2*
X2421500D1*
X2447190D2*
X2461051D1*
X2483701D2*
X2502500D1*
X2528190D2*
X2542051D1*
X2564701D2*
X2573701D1*
X2591722D2*
X2603586D1*
X2638961D2*
X2650585D1*
X1805701Y2062701D2*
X1814701D1*
X1852234D2*
X1865284D1*
X1881591D2*
X1894878D1*
X1926524D2*
X1939413D1*
X1956832D2*
X1967606D1*
X1994413D2*
X2012989D1*
X2039413D2*
X2049748D1*
X2067607D2*
X2080042D1*
X2112509D2*
X2123530D1*
X2141701D2*
X2170798D1*
X2241463D2*
X2267554D1*
X2318701D2*
X2330701D1*
X2369701D2*
X2378701D1*
X2402701D2*
X2416366D1*
X2449354D2*
X2462402D1*
X2483701D2*
X2497366D1*
X2530354D2*
X2543402D1*
X2564701D2*
X2573701D1*
X2592824D2*
X2604673D1*
X2637808D2*
X2649301D1*
X1805701Y2059701D2*
X1814701D1*
X1849339D2*
X1864040D1*
X1880116D2*
X1892648D1*
X1928742D2*
X1940561D1*
X1957667D2*
X1968116D1*
X1993555D2*
X2013846D1*
X2038567D2*
X2049089D1*
X2066122D2*
X2077391D1*
X2113771D2*
X2124642D1*
X2141701D2*
X2163217D1*
X2244166D2*
X2275761D1*
X2318701D2*
X2330701D1*
X2369701D2*
X2378701D1*
X2402701D2*
X2413727D1*
X2451085D2*
X2463589D1*
X2483701D2*
X2494727D1*
X2532085D2*
X2544589D1*
X2564701D2*
X2573701D1*
X2594103D2*
X2605705D1*
X2636775D2*
X2647993D1*
X1805701Y2056701D2*
X1814701D1*
X1841093D2*
X1862280D1*
X1878977D2*
X1891073D1*
X1930212D2*
X1941653D1*
X1958317D2*
X1968887D1*
X1992628D2*
X2000237D1*
X2006815D2*
X2014774D1*
X2037745D2*
X2048418D1*
X2064979D2*
X2075448D1*
X2114882D2*
X2125581D1*
X2141701D2*
X2157489D1*
X2247709D2*
X2283397D1*
X2318701D2*
X2330701D1*
X2369701D2*
X2378701D1*
X2402701D2*
X2412673D1*
X2452344D2*
X2464561D1*
X2483701D2*
X2493673D1*
X2533344D2*
X2545561D1*
X2564701D2*
X2573701D1*
X2595409D2*
X2606685D1*
X2635714D2*
X2646819D1*
X1805701Y2053701D2*
X1814701D1*
X1827976D2*
X1860063D1*
X1878293D2*
X1889872D1*
X1931030D2*
X1942585D1*
X1958985D2*
X1969688D1*
X1991702D2*
X1999482D1*
X2007200D2*
X2015699D1*
X2037190D2*
X2047557D1*
X2064293D2*
X2074097D1*
X2116362D2*
X2126172D1*
X2141701D2*
X2155188D1*
X2252825D2*
X2289629D1*
X2318701D2*
X2330701D1*
X2369701D2*
X2378701D1*
X2402701D2*
X2412110D1*
X2453079D2*
X2465165D1*
X2483701D2*
X2493110D1*
X2534079D2*
X2546165D1*
X2564701D2*
X2573701D1*
X2596583D2*
X2607812D1*
X2634692D2*
X2645767D1*
X1805701Y2050701D2*
X1857013D1*
X1877950D2*
X1888760D1*
X1931424D2*
X1943173D1*
X1959833D2*
X1970325D1*
X1990686D2*
X1998599D1*
X2007930D2*
X2016715D1*
X2036799D2*
X2046629D1*
X2063950D2*
X2073277D1*
X2118394D2*
X2126476D1*
X2141701D2*
X2154388D1*
X2259974D2*
X2294232D1*
X2318701D2*
X2330701D1*
X2369701D2*
X2378701D1*
X2402701D2*
X2411860D1*
X2453441D2*
X2465473D1*
X2483701D2*
X2492860D1*
X2534441D2*
X2546473D1*
X2564701D2*
X2573701D1*
X2597634D2*
X2609099D1*
X2633726D2*
X2644610D1*
X1805701Y2047701D2*
X1852165D1*
X1877798D2*
X1887821D1*
X1931594D2*
X1943476D1*
X1960668D2*
X1970988D1*
X1989682D2*
X1997692D1*
X2008805D2*
X2017720D1*
X2036287D2*
X2045702D1*
X2063798D2*
X2126612D1*
X2141701D2*
X2153980D1*
X2268332D2*
X2297599D1*
X2318701D2*
X2330701D1*
X2369701D2*
X2378701D1*
X2402701D2*
X2411759D1*
X2453600D2*
X2465611D1*
X2483701D2*
X2492759D1*
X2534600D2*
X2546611D1*
X2564701D2*
X2573701D1*
X2598792D2*
X2610408D1*
X2632695D2*
X2643310D1*
X1805701Y2044701D2*
X1843753D1*
X1877737D2*
X1887230D1*
X1931662D2*
X1943612D1*
X1961317D2*
X1971834D1*
X1988723D2*
X1996683D1*
X2009711D2*
X2018679D1*
X2035515D2*
X2044698D1*
X2063737D2*
X2126668D1*
X2141701D2*
X2153806D1*
X2276190D2*
X2300162D1*
X2318701D2*
X2330701D1*
X2369701D2*
X2378701D1*
X2402701D2*
X2411721D1*
X2453664D2*
X2465667D1*
X2483701D2*
X2492721D1*
X2534664D2*
X2546667D1*
X2564701D2*
X2573701D1*
X2600092D2*
X2611582D1*
X2631685D2*
X2641996D1*
X1805701Y2041701D2*
X1830612D1*
X1877714D2*
X1886938D1*
X1931687D2*
X1943668D1*
X1961985D2*
X1972668D1*
X1987694D2*
X1995681D1*
X2010719D2*
X2019708D1*
X2034713D2*
X2043787D1*
X2063714D2*
X2126690D1*
X2141701D2*
X2153738D1*
X2282373D2*
X2301913D1*
X2318701D2*
X2330701D1*
X2369701D2*
X2378701D1*
X2402701D2*
X2411708D1*
X2453688D2*
X2465689D1*
X2483701D2*
X2492708D1*
X2534688D2*
X2546689D1*
X2564701D2*
X2573701D1*
X2601405D2*
X2612623D1*
X2630712D2*
X2640820D1*
X1805701Y2038701D2*
X1814701D1*
X1877705D2*
X1886907D1*
X1931696D2*
X1943689D1*
X1962845D2*
X1973317D1*
X1986684D2*
X1994722D1*
X2011721D2*
X2020717D1*
X2034077D2*
X2043105D1*
X2063705D2*
X2126701D1*
X2141701D2*
X2153714D1*
X2287261D2*
X2302896D1*
X2318701D2*
X2330701D1*
X2369701D2*
X2378701D1*
X2402701D2*
X2411703D1*
X2453696D2*
X2465685D1*
X2483701D2*
X2492703D1*
X2534696D2*
X2546685D1*
X2564701D2*
X2573701D1*
X2602581D2*
X2613686D1*
X2629589D2*
X2639768D1*
X1805701Y2035701D2*
X1814701D1*
X1877702D2*
X1887233D1*
X1931699D2*
X1943685D1*
X1963773D2*
X1973985D1*
X1985724D2*
X1993694D1*
X2012679D2*
X2021678D1*
X2033414D2*
X2042424D1*
X2063702D2*
X2072815D1*
X2141701D2*
X2153705D1*
X2289765D2*
X2303369D1*
X2318701D2*
X2330701D1*
X2369701D2*
X2378701D1*
X2402701D2*
X2411702D1*
X2453688D2*
X2465582D1*
X2483701D2*
X2492702D1*
X2534688D2*
X2546582D1*
X2564701D2*
X2573701D1*
X2603622D2*
X2614709D1*
X2628302D2*
X2638610D1*
X1805701Y2032701D2*
X1814701D1*
X1877713D2*
X1887942D1*
X1931689D2*
X1943582D1*
X1964699D2*
X1974845D1*
X1984694D2*
X1992684D1*
X2013708D2*
X2022707D1*
X2032556D2*
X2041571D1*
X2063713D2*
X2073211D1*
X2141701D2*
X2153702D1*
X2290771D2*
X2303573D1*
X2318701D2*
X2330701D1*
X2369701D2*
X2378701D1*
X2402701D2*
X2411701D1*
X2453583D2*
X2465201D1*
X2483701D2*
X2492701D1*
X2534583D2*
X2546201D1*
X2564701D2*
X2573701D1*
X2604686D2*
X2615687D1*
X2626993D2*
X2637310D1*
X1805701Y2029701D2*
X1814701D1*
X1877818D2*
X1888809D1*
X1931572D2*
X1943201D1*
X1965704D2*
X1975782D1*
X1983676D2*
X1991724D1*
X2014717D2*
X2023726D1*
X2031619D2*
X2040735D1*
X2063818D2*
X2074036D1*
X2141701D2*
X2153701D1*
X2291297D2*
X2303642D1*
X2318713D2*
X2330713D1*
X2369689D2*
X2378701D1*
X2402701D2*
X2411701D1*
X2453189D2*
X2464471D1*
X2483701D2*
X2492701D1*
X2534189D2*
X2545471D1*
X2564701D2*
X2573701D1*
X2605709D2*
X2616821D1*
X2625811D2*
X2635996D1*
X1805701Y2026701D2*
X1814701D1*
X1878212D2*
X1889724D1*
X1931084D2*
X1942471D1*
X1966614D2*
X1976792D1*
X1982631D2*
X1990694D1*
X2015678D2*
X2024770D1*
X2030610D2*
X2040085D1*
X2064212D2*
X2075199D1*
X2141701D2*
X2153701D1*
X2291420D2*
X2303567D1*
X2318818D2*
X2330818D1*
X2369560D2*
X2378701D1*
X2402701D2*
X2411701D1*
X2452354D2*
X2463596D1*
X2483701D2*
X2492701D1*
X2533354D2*
X2544596D1*
X2564701D2*
X2573701D1*
X2606687D2*
X2618197D1*
X2624686D2*
X2634820D1*
X1805701Y2023701D2*
X1814701D1*
X1879036D2*
X1890848D1*
X1929960D2*
X1941596D1*
X1967296D2*
X1978119D1*
X1981290D2*
X1989685D1*
X2016707D2*
X2026111D1*
X2029283D2*
X2039417D1*
X2065036D2*
X2076582D1*
X2141701D2*
X2153701D1*
X2291260D2*
X2303184D1*
X2319200D2*
X2331212D1*
X2369244D2*
X2378701D1*
X2402701D2*
X2411736D1*
X2451085D2*
X2462679D1*
X2483701D2*
X2492736D1*
X2532085D2*
X2543679D1*
X2564701D2*
X2573701D1*
X2607812D2*
X2619849D1*
X2623310D2*
X2633768D1*
X1805701Y2020701D2*
X1814701D1*
X1880199D2*
X1892420D1*
X1928179D2*
X1940679D1*
X1967978D2*
X1988724D1*
X2017717D2*
X2038568D1*
X2066199D2*
X2078433D1*
X2141701D2*
X2153701D1*
X2234701D2*
X2237701D1*
X2290080D2*
X2302352D1*
X2319931D2*
X2332106D1*
X2367726D2*
X2378701D1*
X2402701D2*
X2411921D1*
X2449274D2*
X2461565D1*
X2483701D2*
X2492921D1*
X2530274D2*
X2542565D1*
X2564701D2*
X2573701D1*
X2609099D2*
X2632610D1*
X1805701Y2017701D2*
X1814701D1*
X1881558D2*
X1894495D1*
X1925979D2*
X1939565D1*
X1968831D2*
X1987694D1*
X2018678D2*
X2037734D1*
X2067558D2*
X2080916D1*
X2123701D2*
X2126701D1*
X2141701D2*
X2153701D1*
X2234713D2*
X2244125D1*
X2287331D2*
X2301085D1*
X2320817D2*
X2333409D1*
X2363531D2*
X2378701D1*
X2402701D2*
X2412263D1*
X2446942D2*
X2460169D1*
X2483701D2*
X2493263D1*
X2527942D2*
X2541169D1*
X2564701D2*
X2573701D1*
X2610408D2*
X2631310D1*
X1805701Y2014701D2*
X1814701D1*
X1883105D2*
X1900895D1*
X1919946D2*
X1938158D1*
X1969667D2*
X1986685D1*
X2019707D2*
X2037085D1*
X2069117D2*
X2089230D1*
X2114183D2*
X2126677D1*
X2141701D2*
X2153701D1*
X2234841D2*
X2253720D1*
X2279638D2*
X2299344D1*
X2321840D2*
X2336858D1*
X2356614D2*
X2378701D1*
X2402701D2*
X2420091D1*
X2441059D2*
X2458375D1*
X2483701D2*
X2501091D1*
X2522059D2*
X2539375D1*
X2564701D2*
X2573701D1*
X2611582D2*
X2629996D1*
X1805701Y2011701D2*
X1814701D1*
X1884997D2*
X1910716D1*
X1910431D2*
X1936247D1*
X1970326D2*
X1985721D1*
X2020726D2*
X2036414D1*
X2071102D2*
X2102061D1*
X2100722D2*
X2126431D1*
X2141701D2*
X2153701D1*
X2235158D2*
X2268214D1*
X2267577D2*
X2297055D1*
X2323336D2*
X2345052D1*
X2346192D2*
X2378701D1*
X2402701D2*
X2432460D1*
X2431954D2*
X2456078D1*
X2483701D2*
X2513460D1*
X2512954D2*
X2537078D1*
X2564701D2*
X2573701D1*
X2612611D2*
X2628820D1*
X1805701Y2008701D2*
X1814701D1*
X1887543D2*
X1933462D1*
X1971076D2*
X1984678D1*
X2021770D2*
X2035541D1*
X2073919D2*
X2125834D1*
X2141701D2*
X2153701D1*
X2236722D2*
X2294189D1*
X2325450D2*
X2378701D1*
X2402701D2*
X2453319D1*
X2483701D2*
X2534319D1*
X2564701D2*
X2573701D1*
X2613557D2*
X2627768D1*
X1805701Y2005701D2*
X1814701D1*
X1891128D2*
X1929610D1*
X1972236D2*
X1983645D1*
X2023111D2*
X2034592D1*
X2077784D2*
X2122570D1*
X2141701D2*
X2153701D1*
X2240811D2*
X2290421D1*
X2328012D2*
X2360149D1*
X2369701D2*
X2378701D1*
X2402701D2*
X2450012D1*
X2483701D2*
X2531012D1*
X2564701D2*
X2573701D1*
X2614342D2*
X2626610D1*
X1805701Y2002701D2*
X1814701D1*
X1896022D2*
X1924854D1*
X1973701D2*
X1982701D1*
X2024701D2*
X2033701D1*
X2082545D2*
X2117611D1*
X2141701D2*
X2153701D1*
X2246351D2*
X2285435D1*
X2330814D2*
X2356097D1*
X2369701D2*
X2378701D1*
X2402701D2*
X2411701D1*
X2417701D2*
X2446051D1*
X2483701D2*
X2492701D1*
X2498701D2*
X2527051D1*
X2564701D2*
X2573701D1*
X2613906D2*
X2625310D1*
X1901701Y1999701D2*
X1919701D1*
X2087701D2*
X2111701D1*
X2252701D2*
X2279701D1*
X2333701D2*
X2351701D1*
X2402701D2*
X2411701D1*
X2423701D2*
X2441701D1*
X2483701D2*
X2492701D1*
X2504701D2*
X2522701D1*
X2613006D2*
X2623996D1*
X2402701Y1996701D2*
X2411701D1*
X2483701D2*
X2492701D1*
X2611876D2*
X2622820D1*
X2402701Y1993701D2*
X2411701D1*
X2483701D2*
X2492701D1*
X2610776D2*
X2621779D1*
X2402701Y1990701D2*
X2411701D1*
X2483701D2*
X2492701D1*
X2609752D2*
X2620715D1*
X2402701Y1987701D2*
X2411701D1*
X2483701D2*
X2492701D1*
X2608605D2*
X2619692D1*
X2402701Y1984701D2*
X2411701D1*
X2483701D2*
X2492701D1*
X2607296D2*
X2618715D1*
X2402701Y1981701D2*
X2411701D1*
X2483701D2*
X2492701D1*
X2605881D2*
X2617580D1*
X2402701Y1978701D2*
X2411701D1*
X2483701D2*
X2492701D1*
X2604339D2*
X2616204D1*
X2402701Y1975701D2*
X2411701D1*
X2483701D2*
X2492701D1*
X2602604D2*
X2614553D1*
X2402701Y1972701D2*
X2411701D1*
X2483701D2*
X2492701D1*
X2600701D2*
X2612701D1*
X2258701Y2107701D2*
X2253302Y2104701D1*
X2248653Y2101701D1*
X2245042Y2098701D1*
X2242379Y2095701D1*
X2240332Y2092701D1*
X2238607Y2089701D1*
X2237122Y2086701D1*
X2235991Y2083701D1*
X2235411Y2080701D1*
X2235450Y2077701D1*
X2236028Y2074701D1*
X2236853Y2071701D1*
X2237852Y2068701D1*
X2239340Y2065701D1*
X2241463Y2062701D1*
X2244166Y2059701D1*
X2247709Y2056701D1*
X2252825Y2053701D1*
X2259974Y2050701D1*
X2268332Y2047701D1*
X2276190Y2044701D1*
X2282373Y2041701D1*
X2287261Y2038701D1*
X2289765Y2035701D1*
X2290771Y2032701D1*
X2291297Y2029701D1*
X2291420Y2026701D1*
X2291260Y2023701D1*
X2290080Y2020701D1*
X2287331Y2017701D1*
X2279638Y2014701D1*
X2267577Y2011701D1*
X2252701Y2008701D1*
X2285701Y2107701D2*
X2291906Y2104701D1*
X2296988Y2101701D1*
X2299226Y2098701D1*
X2300018Y2095701D1*
X2300441Y2092701D1*
X2300701Y2089701D1*
X2564701Y2107701D2*
Y2104701D1*
Y2101701D1*
Y2098701D1*
Y2095701D1*
Y2092701D1*
Y2089701D1*
Y2086701D1*
Y2083701D1*
Y2080701D1*
Y2077701D1*
Y2074701D1*
Y2071701D1*
Y2068701D1*
Y2065701D1*
Y2062701D1*
Y2059701D1*
Y2056701D1*
Y2053701D1*
Y2050701D1*
Y2047701D1*
Y2044701D1*
Y2041701D1*
Y2038701D1*
Y2035701D1*
Y2032701D1*
Y2029701D1*
Y2026701D1*
Y2023701D1*
Y2020701D1*
Y2017701D1*
Y2014701D1*
Y2011701D1*
Y2008701D1*
Y2005701D1*
Y2002701D1*
X2573701Y2107701D2*
Y2104701D1*
Y2101701D1*
Y2098701D1*
Y2095701D1*
Y2092701D1*
Y2089701D1*
Y2086701D1*
Y2083701D1*
Y2080701D1*
Y2077701D1*
Y2074701D1*
Y2071701D1*
Y2068701D1*
Y2065701D1*
Y2062701D1*
Y2059701D1*
Y2056701D1*
Y2053701D1*
Y2050701D1*
Y2047701D1*
Y2044701D1*
Y2041701D1*
Y2038701D1*
Y2035701D1*
Y2032701D1*
Y2029701D1*
Y2026701D1*
Y2023701D1*
Y2020701D1*
Y2017701D1*
Y2014701D1*
Y2011701D1*
Y2008701D1*
Y2005701D1*
Y2002701D1*
X1805701Y2104701D2*
Y2101701D1*
Y2098701D1*
Y2095701D1*
Y2092701D1*
Y2089701D1*
Y2086701D1*
Y2083701D1*
Y2080701D1*
Y2077701D1*
Y2074701D1*
Y2071701D1*
Y2068701D1*
Y2065701D1*
Y2062701D1*
Y2059701D1*
Y2056701D1*
Y2053701D1*
Y2050701D1*
Y2047701D1*
Y2044701D1*
Y2041701D1*
Y2038701D1*
Y2035701D1*
Y2032701D1*
Y2029701D1*
Y2026701D1*
Y2023701D1*
Y2020701D1*
Y2017701D1*
Y2014701D1*
Y2011701D1*
Y2008701D1*
Y2005701D1*
Y2002701D1*
X1844701Y2104701D2*
X1850111Y2101701D1*
X1854854Y2098701D1*
X1858741Y2095701D1*
X1861729Y2092701D1*
X1864056Y2089701D1*
X1865017Y2086701D1*
X1865859Y2083701D1*
X1866774Y2080701D1*
X1867522Y2077701D1*
X1867694Y2074701D1*
X1867265Y2071701D1*
X1866616Y2068701D1*
X1866029Y2065701D1*
X1865284Y2062701D1*
X1864040Y2059701D1*
X1862280Y2056701D1*
X1860063Y2053701D1*
X1857013Y2050701D1*
X1852165Y2047701D1*
X1843753Y2044701D1*
X1830612Y2041701D1*
X1814701Y2038701D1*
Y2035701D1*
Y2032701D1*
Y2029701D1*
Y2026701D1*
Y2023701D1*
Y2020701D1*
Y2017701D1*
Y2014701D1*
Y2011701D1*
Y2008701D1*
Y2005701D1*
Y2002701D1*
X2270701Y2098701D2*
X2262994Y2095701D1*
X2256881Y2092701D1*
X2252708Y2089701D1*
X2250014Y2086701D1*
X2248075Y2083701D1*
X2247594Y2080701D1*
X2248257Y2077701D1*
X2249432Y2074701D1*
X2250984Y2071701D1*
X2254615Y2068701D1*
X2260122Y2065701D1*
X2267554Y2062701D1*
X2275761Y2059701D1*
X2283397Y2056701D1*
X2289629Y2053701D1*
X2294232Y2050701D1*
X2297599Y2047701D1*
X2300162Y2044701D1*
X2301913Y2041701D1*
X2302896Y2038701D1*
X2303369Y2035701D1*
X2303573Y2032701D1*
X2303642Y2029701D1*
X2303567Y2026701D1*
X2303184Y2023701D1*
X2302352Y2020701D1*
X2301085Y2017701D1*
X2299344Y2014701D1*
X2297055Y2011701D1*
X2294189Y2008701D1*
X2290421Y2005701D1*
X2285435Y2002701D1*
X2279701Y1999701D1*
X2273701Y2098701D2*
X2281598Y2095701D1*
X2288492Y2092701D1*
X2294701Y2089701D1*
X1814701Y2095701D2*
Y2092701D1*
Y2089701D1*
Y2086701D1*
Y2083701D1*
Y2080701D1*
Y2077701D1*
Y2074701D1*
Y2071701D1*
Y2068701D1*
Y2065701D1*
Y2062701D1*
Y2059701D1*
Y2056701D1*
Y2053701D1*
X1838701Y2050701D1*
X1835701Y2095701D2*
X1841099Y2092701D1*
X1845749Y2089701D1*
X1849359Y2086701D1*
X1852011Y2083701D1*
X1853941Y2080701D1*
X1855460Y2077701D1*
X1855632Y2074701D1*
X1855223Y2071701D1*
X1854486Y2068701D1*
X1853513Y2065701D1*
X1852234Y2062701D1*
X1849339Y2059701D1*
X1841093Y2056701D1*
X1827976Y2053701D1*
X1811701Y2050701D1*
X1901701Y2080701D2*
X1895943Y2077701D1*
X1891325Y2074701D1*
X1887847Y2071701D1*
X1885284Y2068701D1*
X1883291Y2065701D1*
X1881591Y2062701D1*
X1880116Y2059701D1*
X1878977Y2056701D1*
X1878293Y2053701D1*
X1877950Y2050701D1*
X1877798Y2047701D1*
X1877737Y2044701D1*
X1877714Y2041701D1*
X1877705Y2038701D1*
X1877702Y2035701D1*
X1877713Y2032701D1*
X1877818Y2029701D1*
X1878212Y2026701D1*
X1879036Y2023701D1*
X1880199Y2020701D1*
X1881558Y2017701D1*
X1883105Y2014701D1*
X1884997Y2011701D1*
X1887543Y2008701D1*
X1891128Y2005701D1*
X1896022Y2002701D1*
X1901701Y1999701D1*
X1919701Y2080701D2*
X1925099Y2077701D1*
X1929749Y2074701D1*
X1933359Y2071701D1*
X1936011Y2068701D1*
X1937964Y2065701D1*
X1939413Y2062701D1*
X1940561Y2059701D1*
X1941653Y2056701D1*
X1942585Y2053701D1*
X1943173Y2050701D1*
X1943476Y2047701D1*
X1943612Y2044701D1*
X1943668Y2041701D1*
X1943689Y2038701D1*
X1943685Y2035701D1*
X1943582Y2032701D1*
X1943201Y2029701D1*
X1942471Y2026701D1*
X1941596Y2023701D1*
X1940679Y2020701D1*
X1939565Y2017701D1*
X1938158Y2014701D1*
X1936247Y2011701D1*
X1933462Y2008701D1*
X1929610Y2005701D1*
X1924854Y2002701D1*
X1919701Y1999701D1*
X2087701Y2080701D2*
X2082302Y2077701D1*
X2077653Y2074701D1*
X2074042Y2071701D1*
X2071379Y2068701D1*
X2069332Y2065701D1*
X2067607Y2062701D1*
X2066122Y2059701D1*
X2064979Y2056701D1*
X2064293Y2053701D1*
X2063950Y2050701D1*
X2063798Y2047701D1*
X2063737Y2044701D1*
X2063714Y2041701D1*
X2063705Y2038701D1*
X2063702Y2035701D1*
X2063713Y2032701D1*
X2063818Y2029701D1*
X2064212Y2026701D1*
X2065036Y2023701D1*
X2066199Y2020701D1*
X2067558Y2017701D1*
X2069117Y2014701D1*
X2071102Y2011701D1*
X2073919Y2008701D1*
X2077784Y2005701D1*
X2082545Y2002701D1*
X2087701Y1999701D1*
X2105701Y2080701D2*
X2110997Y2077701D1*
X2115355Y2074701D1*
X2118524Y2071701D1*
X2120754Y2068701D1*
X2122329Y2065701D1*
X2123530Y2062701D1*
X2124642Y2059701D1*
X2125581Y2056701D1*
X2126172Y2053701D1*
X2126476Y2050701D1*
X2126612Y2047701D1*
X2126668Y2044701D1*
X2126690Y2041701D1*
X2126701Y2038701D1*
X2429701Y2080701D2*
X2423149Y2077701D1*
X2416097Y2074701D1*
X2408701Y2071701D1*
X2444701Y2080701D2*
X2449648Y2077701D1*
X2453647Y2074701D1*
X2456757Y2071701D1*
X2459231Y2068701D1*
X2461051Y2065701D1*
X2462402Y2062701D1*
X2463589Y2059701D1*
X2464561Y2056701D1*
X2465165Y2053701D1*
X2465473Y2050701D1*
X2465611Y2047701D1*
X2465667Y2044701D1*
X2465689Y2041701D1*
X2465685Y2038701D1*
X2465582Y2035701D1*
X2465201Y2032701D1*
X2464471Y2029701D1*
X2463596Y2026701D1*
X2462679Y2023701D1*
X2461565Y2020701D1*
X2460169Y2017701D1*
X2458375Y2014701D1*
X2456078Y2011701D1*
X2453319Y2008701D1*
X2450012Y2005701D1*
X2446051Y2002701D1*
X2441701Y1999701D1*
X2510701Y2080701D2*
X2504149Y2077701D1*
X2497097Y2074701D1*
X2489701Y2071701D1*
X2525701Y2080701D2*
X2530648Y2077701D1*
X2534647Y2074701D1*
X2537757Y2071701D1*
X2540231Y2068701D1*
X2542051Y2065701D1*
X2543402Y2062701D1*
X2544589Y2059701D1*
X2545561Y2056701D1*
X2546165Y2053701D1*
X2546473Y2050701D1*
X2546611Y2047701D1*
X2546667Y2044701D1*
X2546689Y2041701D1*
X2546685Y2038701D1*
X2546582Y2035701D1*
X2546201Y2032701D1*
X2545471Y2029701D1*
X2544596Y2026701D1*
X2543679Y2023701D1*
X2542565Y2020701D1*
X2541169Y2017701D1*
X2539375Y2014701D1*
X2537078Y2011701D1*
X2534319Y2008701D1*
X2531012Y2005701D1*
X2527051Y2002701D1*
X2522701Y1999701D1*
X1952701Y2077701D2*
X1953726Y2074701D1*
X1954631Y2071701D1*
X1955305Y2068701D1*
X1955981Y2065701D1*
X1956832Y2062701D1*
X1957667Y2059701D1*
X1958317Y2056701D1*
X1958985Y2053701D1*
X1959833Y2050701D1*
X1960668Y2047701D1*
X1961317Y2044701D1*
X1961985Y2041701D1*
X1962845Y2038701D1*
X1963773Y2035701D1*
X1964699Y2032701D1*
X1965704Y2029701D1*
X1966614Y2026701D1*
X1967296Y2023701D1*
X1967978Y2020701D1*
X1968831Y2017701D1*
X1969667Y2014701D1*
X1970326Y2011701D1*
X1971076Y2008701D1*
X1972236Y2005701D1*
X1973701Y2002701D1*
X1964701Y2077701D2*
X1965164Y2074701D1*
X1965908Y2071701D1*
X1966685Y2068701D1*
X1967222Y2065701D1*
X1967606Y2062701D1*
X1968116Y2059701D1*
X1968887Y2056701D1*
X1969688Y2053701D1*
X1970325Y2050701D1*
X1970988Y2047701D1*
X1971834Y2044701D1*
X1972668Y2041701D1*
X1973317Y2038701D1*
X1973985Y2035701D1*
X1974845Y2032701D1*
X1975782Y2029701D1*
X1976792Y2026701D1*
X1978119Y2023701D1*
X1979701Y2020701D1*
X1997701Y2077701D2*
X1997237Y2074701D1*
X1996493Y2071701D1*
X1995705Y2068701D1*
X1995074Y2065701D1*
X1994413Y2062701D1*
X1993555Y2059701D1*
X1992628Y2056701D1*
X1991702Y2053701D1*
X1990686Y2050701D1*
X1989682Y2047701D1*
X1988723Y2044701D1*
X1987694Y2041701D1*
X1986684Y2038701D1*
X1985724Y2035701D1*
X1984694Y2032701D1*
X1983676Y2029701D1*
X1982631Y2026701D1*
X1981290Y2023701D1*
X1979701Y2020701D1*
X2009701Y2077701D2*
X2010164Y2074701D1*
X2010908Y2071701D1*
X2011697Y2068701D1*
X2012328Y2065701D1*
X2012989Y2062701D1*
X2013846Y2059701D1*
X2014774Y2056701D1*
X2015699Y2053701D1*
X2016715Y2050701D1*
X2017720Y2047701D1*
X2018679Y2044701D1*
X2019708Y2041701D1*
X2020717Y2038701D1*
X2021678Y2035701D1*
X2022707Y2032701D1*
X2023726Y2029701D1*
X2024770Y2026701D1*
X2026111Y2023701D1*
X2027701Y2020701D1*
X2042701Y2077701D2*
X2042237Y2074701D1*
X2041493Y2071701D1*
X2040705Y2068701D1*
X2040074Y2065701D1*
X2039413Y2062701D1*
X2038567Y2059701D1*
X2037745Y2056701D1*
X2037190Y2053701D1*
X2036799Y2050701D1*
X2036287Y2047701D1*
X2035515Y2044701D1*
X2034713Y2041701D1*
X2034077Y2038701D1*
X2033414Y2035701D1*
X2032556Y2032701D1*
X2031619Y2029701D1*
X2030610Y2026701D1*
X2029283Y2023701D1*
X2027701Y2020701D1*
X2054701Y2077701D2*
X2053304Y2074701D1*
X2052337Y2071701D1*
X2051519Y2068701D1*
X2050607Y2065701D1*
X2049748Y2062701D1*
X2049089Y2059701D1*
X2048418Y2056701D1*
X2047557Y2053701D1*
X2046629Y2050701D1*
X2045702Y2047701D1*
X2044698Y2044701D1*
X2043787Y2041701D1*
X2043105Y2038701D1*
X2042424Y2035701D1*
X2041571Y2032701D1*
X2040735Y2029701D1*
X2040085Y2026701D1*
X2039417Y2023701D1*
X2038568Y2020701D1*
X2037734Y2017701D1*
X2037085Y2014701D1*
X2036414Y2011701D1*
X2035541Y2008701D1*
X2034592Y2005701D1*
X2033701Y2002701D1*
X2141701Y2077701D2*
Y2074701D1*
Y2071701D1*
Y2068701D1*
Y2065701D1*
Y2062701D1*
Y2059701D1*
Y2056701D1*
Y2053701D1*
Y2050701D1*
Y2047701D1*
Y2044701D1*
Y2041701D1*
Y2038701D1*
Y2035701D1*
Y2032701D1*
Y2029701D1*
Y2026701D1*
Y2023701D1*
Y2020701D1*
Y2017701D1*
Y2014701D1*
Y2011701D1*
Y2008701D1*
Y2005701D1*
Y2002701D1*
X2153701Y2077701D2*
X2154252Y2074701D1*
X2155305Y2071701D1*
X2156701Y2068701D1*
X2171701Y2077701D2*
X2165149Y2074701D1*
X2158097Y2071701D1*
X2150701Y2068701D1*
X2180701Y2077701D2*
Y2074701D1*
Y2071701D1*
Y2068701D1*
Y2065701D1*
X2170798Y2062701D1*
X2163217Y2059701D1*
X2157489Y2056701D1*
X2155188Y2053701D1*
X2154388Y2050701D1*
X2153980Y2047701D1*
X2153806Y2044701D1*
X2153738Y2041701D1*
X2153714Y2038701D1*
X2153705Y2035701D1*
X2153702Y2032701D1*
X2153701Y2029701D1*
Y2026701D1*
Y2023701D1*
Y2020701D1*
Y2017701D1*
Y2014701D1*
Y2011701D1*
Y2008701D1*
Y2005701D1*
Y2002701D1*
X2318701Y2077701D2*
Y2074701D1*
Y2071701D1*
Y2068701D1*
Y2065701D1*
Y2062701D1*
Y2059701D1*
Y2056701D1*
Y2053701D1*
Y2050701D1*
Y2047701D1*
Y2044701D1*
Y2041701D1*
Y2038701D1*
Y2035701D1*
Y2032701D1*
X2318713Y2029701D1*
X2318818Y2026701D1*
X2319200Y2023701D1*
X2319931Y2020701D1*
X2320817Y2017701D1*
X2321840Y2014701D1*
X2323336Y2011701D1*
X2325450Y2008701D1*
X2328012Y2005701D1*
X2330814Y2002701D1*
X2333701Y1999701D1*
X2330701Y2077701D2*
Y2074701D1*
Y2071701D1*
Y2068701D1*
Y2065701D1*
Y2062701D1*
Y2059701D1*
Y2056701D1*
Y2053701D1*
Y2050701D1*
Y2047701D1*
Y2044701D1*
Y2041701D1*
Y2038701D1*
Y2035701D1*
Y2032701D1*
X2330713Y2029701D1*
X2330818Y2026701D1*
X2331212Y2023701D1*
X2332106Y2020701D1*
X2333409Y2017701D1*
X2336858Y2014701D1*
X2345052Y2011701D1*
X2354701Y2008701D1*
X2369701Y2077701D2*
Y2074701D1*
Y2071701D1*
Y2068701D1*
Y2065701D1*
Y2062701D1*
Y2059701D1*
Y2056701D1*
Y2053701D1*
Y2050701D1*
Y2047701D1*
Y2044701D1*
Y2041701D1*
Y2038701D1*
Y2035701D1*
Y2032701D1*
X2369689Y2029701D1*
X2369560Y2026701D1*
X2369244Y2023701D1*
X2367726Y2020701D1*
X2363531Y2017701D1*
X2356614Y2014701D1*
X2346192Y2011701D1*
X2333701Y2008701D1*
X2378701Y2077701D2*
Y2074701D1*
Y2071701D1*
Y2068701D1*
Y2065701D1*
Y2062701D1*
Y2059701D1*
Y2056701D1*
Y2053701D1*
Y2050701D1*
Y2047701D1*
Y2044701D1*
Y2041701D1*
Y2038701D1*
Y2035701D1*
Y2032701D1*
Y2029701D1*
Y2026701D1*
Y2023701D1*
Y2020701D1*
Y2017701D1*
Y2014701D1*
Y2011701D1*
Y2008701D1*
Y2005701D1*
Y2002701D1*
X2402701Y2077701D2*
Y2074701D1*
Y2071701D1*
Y2068701D1*
Y2065701D1*
Y2062701D1*
Y2059701D1*
Y2056701D1*
Y2053701D1*
Y2050701D1*
Y2047701D1*
Y2044701D1*
Y2041701D1*
Y2038701D1*
Y2035701D1*
Y2032701D1*
Y2029701D1*
Y2026701D1*
Y2023701D1*
Y2020701D1*
Y2017701D1*
Y2014701D1*
Y2011701D1*
Y2008701D1*
Y2005701D1*
Y2002701D1*
Y1999701D1*
Y1996701D1*
Y1993701D1*
Y1990701D1*
Y1987701D1*
Y1984701D1*
Y1981701D1*
Y1978701D1*
Y1975701D1*
Y1972701D1*
X2411701Y2077701D2*
X2413107Y2074701D1*
X2414701Y2071701D1*
X2483701Y2077701D2*
Y2074701D1*
Y2071701D1*
Y2068701D1*
Y2065701D1*
Y2062701D1*
Y2059701D1*
Y2056701D1*
Y2053701D1*
Y2050701D1*
Y2047701D1*
Y2044701D1*
Y2041701D1*
Y2038701D1*
Y2035701D1*
Y2032701D1*
Y2029701D1*
Y2026701D1*
Y2023701D1*
Y2020701D1*
Y2017701D1*
Y2014701D1*
Y2011701D1*
Y2008701D1*
Y2005701D1*
Y2002701D1*
Y1999701D1*
Y1996701D1*
Y1993701D1*
Y1990701D1*
Y1987701D1*
Y1984701D1*
Y1981701D1*
Y1978701D1*
Y1975701D1*
Y1972701D1*
X2492701Y2077701D2*
X2494107Y2074701D1*
X2495701Y2071701D1*
X2588701Y2077701D2*
X2589164Y2074701D1*
X2589920Y2071701D1*
X2590802Y2068701D1*
X2591722Y2065701D1*
X2592824Y2062701D1*
X2594103Y2059701D1*
X2595409Y2056701D1*
X2596583Y2053701D1*
X2597634Y2050701D1*
X2598792Y2047701D1*
X2600092Y2044701D1*
X2601405Y2041701D1*
X2602581Y2038701D1*
X2603622Y2035701D1*
X2604686Y2032701D1*
X2605709Y2029701D1*
X2606687Y2026701D1*
X2607812Y2023701D1*
X2609099Y2020701D1*
X2610408Y2017701D1*
X2611582Y2014701D1*
X2612611Y2011701D1*
X2613557Y2008701D1*
X2614342Y2005701D1*
X2613906Y2002701D1*
X2613006Y1999701D1*
X2611876Y1996701D1*
X2610776Y1993701D1*
X2609752Y1990701D1*
X2608605Y1987701D1*
X2607296Y1984701D1*
X2605881Y1981701D1*
X2604339Y1978701D1*
X2602604Y1975701D1*
X2600701Y1972701D1*
X2597701Y2077701D2*
X2599549Y2074701D1*
X2601166Y2071701D1*
X2602485Y2068701D1*
X2603586Y2065701D1*
X2604673Y2062701D1*
X2605705Y2059701D1*
X2606685Y2056701D1*
X2607812Y2053701D1*
X2609099Y2050701D1*
X2610408Y2047701D1*
X2611582Y2044701D1*
X2612623Y2041701D1*
X2613686Y2038701D1*
X2614709Y2035701D1*
X2615687Y2032701D1*
X2616821Y2029701D1*
X2618197Y2026701D1*
X2619849Y2023701D1*
X2621701Y2020701D1*
X2642701Y2077701D2*
X2642225Y2074701D1*
X2641376Y2071701D1*
X2640217Y2068701D1*
X2638961Y2065701D1*
X2637808Y2062701D1*
X2636775Y2059701D1*
X2635714Y2056701D1*
X2634692Y2053701D1*
X2633726Y2050701D1*
X2632695Y2047701D1*
X2631685Y2044701D1*
X2630712Y2041701D1*
X2629589Y2038701D1*
X2628302Y2035701D1*
X2626993Y2032701D1*
X2625811Y2029701D1*
X2624686Y2026701D1*
X2623310Y2023701D1*
X2621701Y2020701D1*
X2654701Y2077701D2*
X2653663Y2074701D1*
X2652665Y2071701D1*
X2651702Y2068701D1*
X2650585Y2065701D1*
X2649301Y2062701D1*
X2647993Y2059701D1*
X2646819Y2056701D1*
X2645767Y2053701D1*
X2644610Y2050701D1*
X2643310Y2047701D1*
X2641996Y2044701D1*
X2640820Y2041701D1*
X2639768Y2038701D1*
X2638610Y2035701D1*
X2637310Y2032701D1*
X2635996Y2029701D1*
X2634820Y2026701D1*
X2633768Y2023701D1*
X2632610Y2020701D1*
X2631310Y2017701D1*
X2629996Y2014701D1*
X2628820Y2011701D1*
X2627768Y2008701D1*
X2626610Y2005701D1*
X2625310Y2002701D1*
X2623996Y1999701D1*
X2622820Y1996701D1*
X2621779Y1993701D1*
X2620715Y1990701D1*
X2619692Y1987701D1*
X2618715Y1984701D1*
X2617580Y1981701D1*
X2616204Y1978701D1*
X2614553Y1975701D1*
X2612701Y1972701D1*
X1907701Y2071701D2*
X1902405Y2068701D1*
X1898046Y2065701D1*
X1894878Y2062701D1*
X1892648Y2059701D1*
X1891073Y2056701D1*
X1889872Y2053701D1*
X1888760Y2050701D1*
X1887821Y2047701D1*
X1887230Y2044701D1*
X1886938Y2041701D1*
X1886907Y2038701D1*
X1887233Y2035701D1*
X1887942Y2032701D1*
X1888809Y2029701D1*
X1889724Y2026701D1*
X1890848Y2023701D1*
X1892420Y2020701D1*
X1894495Y2017701D1*
X1900895Y2014701D1*
X1910716Y2011701D1*
X1922701Y2008701D1*
X1913701Y2071701D2*
X1918997Y2068701D1*
X1923355Y2065701D1*
X1926524Y2062701D1*
X1928742Y2059701D1*
X1930212Y2056701D1*
X1931030Y2053701D1*
X1931424Y2050701D1*
X1931594Y2047701D1*
X1931662Y2044701D1*
X1931687Y2041701D1*
X1931696Y2038701D1*
X1931699Y2035701D1*
X1931689Y2032701D1*
X1931572Y2029701D1*
X1931084Y2026701D1*
X1929960Y2023701D1*
X1928179Y2020701D1*
X1925979Y2017701D1*
X1919946Y2014701D1*
X1910431Y2011701D1*
X1898701Y2008701D1*
X2093701Y2071701D2*
X2088302Y2068701D1*
X2083653Y2065701D1*
X2080042Y2062701D1*
X2077391Y2059701D1*
X2075448Y2056701D1*
X2074097Y2053701D1*
X2073277Y2050701D1*
X2072701Y2047701D1*
X2099701Y2071701D2*
X2104985Y2068701D1*
X2109238Y2065701D1*
X2112509Y2062701D1*
X2113771Y2059701D1*
X2114882Y2056701D1*
X2116362Y2053701D1*
X2118394Y2050701D1*
X2120701Y2047701D1*
X2435701Y2071701D2*
X2427892Y2068701D1*
X2421500Y2065701D1*
X2416366Y2062701D1*
X2413727Y2059701D1*
X2412673Y2056701D1*
X2412110Y2053701D1*
X2411860Y2050701D1*
X2411759Y2047701D1*
X2411721Y2044701D1*
X2411708Y2041701D1*
X2411703Y2038701D1*
X2411702Y2035701D1*
X2411701Y2032701D1*
Y2029701D1*
Y2026701D1*
X2411736Y2023701D1*
X2411921Y2020701D1*
X2412263Y2017701D1*
X2420091Y2014701D1*
X2432460Y2011701D1*
X2447701Y2008701D1*
X2441701Y2071701D2*
X2444587Y2068701D1*
X2447190Y2065701D1*
X2449354Y2062701D1*
X2451085Y2059701D1*
X2452344Y2056701D1*
X2453079Y2053701D1*
X2453441Y2050701D1*
X2453600Y2047701D1*
X2453664Y2044701D1*
X2453688Y2041701D1*
X2453696Y2038701D1*
X2453688Y2035701D1*
X2453583Y2032701D1*
X2453189Y2029701D1*
X2452354Y2026701D1*
X2451085Y2023701D1*
X2449274Y2020701D1*
X2446942Y2017701D1*
X2441059Y2014701D1*
X2431954Y2011701D1*
X2420701Y2008701D1*
X2516701Y2071701D2*
X2508892Y2068701D1*
X2502500Y2065701D1*
X2497366Y2062701D1*
X2494727Y2059701D1*
X2493673Y2056701D1*
X2493110Y2053701D1*
X2492860Y2050701D1*
X2492759Y2047701D1*
X2492721Y2044701D1*
X2492708Y2041701D1*
X2492703Y2038701D1*
X2492702Y2035701D1*
X2492701Y2032701D1*
Y2029701D1*
Y2026701D1*
X2492736Y2023701D1*
X2492921Y2020701D1*
X2493263Y2017701D1*
X2501091Y2014701D1*
X2513460Y2011701D1*
X2528701Y2008701D1*
X2522701Y2071701D2*
X2525587Y2068701D1*
X2528190Y2065701D1*
X2530354Y2062701D1*
X2532085Y2059701D1*
X2533344Y2056701D1*
X2534079Y2053701D1*
X2534441Y2050701D1*
X2534600Y2047701D1*
X2534664Y2044701D1*
X2534688Y2041701D1*
X2534696Y2038701D1*
X2534688Y2035701D1*
X2534583Y2032701D1*
X2534189Y2029701D1*
X2533354Y2026701D1*
X2532085Y2023701D1*
X2530274Y2020701D1*
X2527942Y2017701D1*
X2522059Y2014701D1*
X2512954Y2011701D1*
X2501701Y2008701D1*
X2000701Y2059701D2*
X2000237Y2056701D1*
X1999482Y2053701D1*
X1998599Y2050701D1*
X1997692Y2047701D1*
X1996683Y2044701D1*
X1995681Y2041701D1*
X1994722Y2038701D1*
X1993694Y2035701D1*
X1992684Y2032701D1*
X1991724Y2029701D1*
X1990694Y2026701D1*
X1989685Y2023701D1*
X1988724Y2020701D1*
X1987694Y2017701D1*
X1986685Y2014701D1*
X1985721Y2011701D1*
X1984678Y2008701D1*
X1983645Y2005701D1*
X1982701Y2002701D1*
X2006701Y2059701D2*
X2006815Y2056701D1*
X2007200Y2053701D1*
X2007930Y2050701D1*
X2008805Y2047701D1*
X2009711Y2044701D1*
X2010719Y2041701D1*
X2011721Y2038701D1*
X2012679Y2035701D1*
X2013708Y2032701D1*
X2014717Y2029701D1*
X2015678Y2026701D1*
X2016707Y2023701D1*
X2017717Y2020701D1*
X2018678Y2017701D1*
X2019707Y2014701D1*
X2020726Y2011701D1*
X2021770Y2008701D1*
X2023111Y2005701D1*
X2024701Y2002701D1*
X2072701Y2038701D2*
X2072815Y2035701D1*
X2073211Y2032701D1*
X2074036Y2029701D1*
X2075199Y2026701D1*
X2076582Y2023701D1*
X2078433Y2020701D1*
X2080916Y2017701D1*
X2089230Y2014701D1*
X2102061Y2011701D1*
X2117701Y2008701D1*
X2234701Y2020701D2*
X2234713Y2017701D1*
X2234841Y2014701D1*
X2235158Y2011701D1*
X2236722Y2008701D1*
X2240811Y2005701D1*
X2246351Y2002701D1*
X2252701Y1999701D1*
X2237701Y2020701D2*
X2244125Y2017701D1*
X2253720Y2014701D1*
X2268214Y2011701D1*
X2285701Y2008701D1*
X2123701Y2017701D2*
X2114183Y2014701D1*
X2100722Y2011701D1*
X2084701Y2008701D1*
X2126701Y2017701D2*
X2126677Y2014701D1*
X2126431Y2011701D1*
X2125834Y2008701D1*
X2122570Y2005701D1*
X2117611Y2002701D1*
X2111701Y1999701D1*
X2363701Y2008701D2*
X2360149Y2005701D1*
X2356097Y2002701D1*
X2351701Y1999701D1*
X2369701Y2008701D2*
Y2005701D1*
Y2002701D1*
X2411701Y2005701D2*
Y2002701D1*
Y1999701D1*
Y1996701D1*
Y1993701D1*
Y1990701D1*
Y1987701D1*
Y1984701D1*
Y1981701D1*
Y1978701D1*
Y1975701D1*
Y1972701D1*
Y2005701D2*
X2417701Y2002701D1*
X2423701Y1999701D1*
X2492701Y2005701D2*
Y2002701D1*
Y1999701D1*
Y1996701D1*
Y1993701D1*
Y1990701D1*
Y1987701D1*
Y1984701D1*
Y1981701D1*
Y1978701D1*
Y1975701D1*
Y1972701D1*
Y2005701D2*
X2498701Y2002701D1*
X2504701Y1999701D1*
X1147919Y1747892D2*
D45*
X1145543Y1752646D1*
X1140734Y1757454D1*
X1135981Y1759831D1*
X1126420D1*
X1121611Y1757454D1*
X1116858Y1752646D1*
X1114426Y1747892D1*
X1112049Y1740707D1*
Y1728714D1*
X1114426Y1721584D1*
X1116858Y1716776D1*
X1121611Y1712023D1*
X1126420Y1709591D1*
X1135981D1*
X1140734Y1712023D1*
X1145543Y1716776D1*
X1147919Y1721584D1*
X1163359Y1750214D2*
X1168167Y1752646D1*
X1175352Y1759775D1*
Y1709591D1*
X2237169Y1747892D2*
X2234793Y1752646D1*
X2229984Y1757454D1*
X2225231Y1759831D1*
X2215670D1*
X2210861Y1757454D1*
X2206108Y1752646D1*
X2203676Y1747892D1*
X2201300Y1740707D1*
Y1728714D1*
X2203676Y1721584D1*
X2206108Y1716776D1*
X2210861Y1712023D1*
X2215670Y1709591D1*
X2225231D1*
X2229984Y1712023D1*
X2234793Y1716776D1*
X2237169Y1721584D1*
X2255041Y1747837D2*
Y1750214D1*
X2257417Y1755022D1*
X2259794Y1757399D1*
X2264602Y1759775D1*
X2274164D1*
X2278917Y1757399D1*
X2281294Y1755022D1*
X2283725Y1750214D1*
Y1745461D1*
X2281294Y1740652D1*
X2276540Y1733522D1*
X2252609Y1709591D1*
X2286102D1*
X2513238Y1266917D2*
Y1216677D1*
X2529984D1*
X2537169Y1219109D1*
X2541978Y1223862D1*
X2544354Y1228671D1*
X2546731Y1235801D1*
Y1247794D1*
X2544354Y1254979D1*
X2541978Y1259732D1*
X2537169Y1264541D1*
X2529984Y1266917D1*
X2513238D1*
X2562170Y1257300D2*
X2566979Y1259732D1*
X2574164Y1266862D1*
Y1216677D1*
X2464409Y1413238D2*
Y1434738D1*
X2461978Y1441923D1*
X2459601Y1444355D1*
X2454848Y1446731D1*
X2450039D1*
X2445286Y1444355D1*
X2442854Y1441923D1*
X2440478Y1434738D1*
Y1413238D1*
X2490718D1*
X2464409Y1429985D2*
X2490718Y1446731D1*
X2450095Y1462170D2*
X2447663Y1466979D1*
X2440533Y1474164D1*
X2490718D1*
X619768Y1756294D2*
Y1706054D1*
X635207D2*
X668701Y1756239D1*
X684140Y1729986D2*
X705695D1*
X712825Y1732362D1*
X715257Y1734794D1*
X717633Y1739547D1*
Y1746732D1*
X715257Y1751485D1*
X712825Y1753917D1*
X705695Y1756294D1*
X684140D1*
Y1706054D1*
X3020478Y1490015D2*
X3022854Y1485207D1*
X3027663Y1480454D1*
X3032416Y1478022D1*
X3039601Y1475645D1*
X3051594D1*
X3058724Y1478022D1*
X3063533Y1480454D1*
X3068286Y1485207D1*
X3070718Y1490015D1*
Y1499577D1*
X3068286Y1504330D1*
X3063533Y1509138D1*
X3058724Y1511515D1*
X3051595Y1513892D1*
X3039601D1*
X3032416Y1511515D1*
X3027663Y1509138D1*
X3022854Y1504330D1*
X3020478Y1499577D1*
Y1490015D1*
X3070718Y1529331D2*
X3020533Y1562824D1*
X3046786Y1578263D2*
Y1599818D1*
X3044409Y1606948D1*
X3041978Y1609380D1*
X3037224Y1611757D1*
X3030039D1*
X3025286Y1609380D1*
X3022854Y1606948D1*
X3020478Y1599818D1*
Y1578263D1*
X3070718D1*
X1713238Y1773223D2*
Y1737353D1*
X1715614Y1730168D1*
X1720423Y1725415D1*
X1727608Y1722983D1*
X1732361D1*
X1739546Y1725415D1*
X1744354Y1730168D1*
X1746731Y1737353D1*
Y1773223D1*
X1762170Y1763606D2*
X1766979Y1766038D1*
X1774164Y1773168D1*
Y1722983D1*
M02*
